Girl Walks Into a Bar

Girl Walks Into a Bar is a 2011 multiple story line ensemble comedy film produced exclusively for Internet distribution.
It is directed by Sebastián Gutiérrez from his own script, much like the anthology style of Gutiérrez's Women in Trouble,
and follows a group of apparent strangers in interlocking stories taking place in ten different bars during the course of one evening throughout Los Angeles.

Plot

An undercover ex-cop named Francine Driver, who poses as an assassin, meets a dentist in a Los Angeles bar.
His name is Nick and he wants his wife Karen dead.
He does not have the upfront payment of $20,000, but he promises he can get it for her before the night is over.
When he leaves, Francine meets a young man named Henry, a photographer who charms her before stealing her wallet and running off into the night.
Her wallet contains the device used to record her conversation with Nick, and the evidence is incriminating.
This begins Francine's frantic search through the bars and clubs of Los Angeles. As she journeys, a number of characters are introduced.
There is Henry's sister, Teresa, an exotic dancer.
There is Teresa and Henry's father, Dodge, an ex-con who gives his son the most baffling of advice and has a strange fixation on bones.
There is Nick's patient, Aldo, a gangster who can get Nick his money ... but only by roping him into participating in a heist.
There is a bartender named Camilla, who is having relationship problems with her divorced upstairs neighbor.
There is June, a hatcheck girl for an exclusive nude ping pong club.
There is Francine's superior, Sam Salazar, who is always addressed as Officer but is actually a detective.
Then there is Francine's ex-husband, Emmit, who has something Francine wants.

Production

Girl Walks Into a Bar is produced by Gutiérrez's Gato Negro Films and co-produced by Zach Schwartz's Shangri-La Entertainment.
Principal photography took place in Los Angeles in March 2010. The film was shot in eleven days with a Canon 7D high-definition camera.

Release Info

240p standard definition, should be compatible with DixV/XviD hardware players, small download, great quality.

General
Complete name                    : Girl.Walks.Into.a.Bar.2011.WEBRip.240p.XviD-MADMAX.avi
Format                           : AVI
Format/Info                      : Audio Video Interleave
File size                        : 188 MiB
Duration                         : 1h 19mn
Overall bit rate                 : 333 Kbps
Writing library                  : VirtualDub build 32842/release

Video
ID                               : 0
Format                           : MPEG-4 Visual
Format profile                   : Advanced Simple@L5
Format settings, BVOP            : 3
Format settings, QPel            : No
Format settings, GMC             : No warppoints
Format settings, Matrix          : Default (H.263)
Codec ID                         : XVID
Codec ID/Hint                    : XviD
Duration                         : 1h 19mn
Bit rate                         : 269 Kbps
Width                            : 576 pixels
Height                           : 240 pixels
Display aspect ratio             : 2.40:1
Frame rate                       : 23.976 fps
Color space                      : YUV
Chroma subsampling               : 4:2:0
Bit depth                        : 8 bits
Scan type                        : Progressive
Compression mode                 : Lossy
Bits/(Pixel*Frame)               : 0.081
Stream size                      : 152 MiB (81%)
Writing library                  : XviD 1.2.1 (UTC 2008-12-04)

Audio
ID                               : 1
Format                           : MPEG Audio
Format version                   : Version 1
Format profile                   : Layer 3
Mode                             : Joint stereo
Mode extension                   : MS Stereo
Codec ID                         : 55
Codec ID/Hint                    : MP3
Duration                         : 1h 19mn
Bit rate mode                    : Variable
Bit rate                         : 52.0 Kbps
Channel(s)                       : 2 channels
Sampling rate                    : 44.1 KHz
Compression mode                 : Lossy
Stream size                      : 29.4 MiB (16%)
Alignment                        : Aligned on interleaves
Interleave, duration             : 26 ms (0.63 video frame)
Interleave, preload duration     : 336 ms
Writing library                  : LAME3.98.4
